<?xml version="1.0" standalone="no"?>
<!DOCTYPE svg PUBLIC "-//W3C//DTD SVG 20010904//EN"
 "http://www.w3.org/TR/2001/REC-SVG-20010904/DTD/svg10.dtd">
<svg version="1.0" xmlns="http://www.w3.org/2000/svg"
 width="493.000000pt" height="506.000000pt" viewBox="0 0 493.000000 506.000000"
 preserveAspectRatio="xMidYMid meet">

<g transform="translate(0.000000,506.000000) scale(0.100000,-0.100000)"
fill="#000000" stroke="none">
<path d="M4434 4853 c-91 -117 -212 -236 -307 -301 -127 -88 -262 -145 -508
-216 -382 -110 -486 -160 -644 -308 -36 -33 -65 -55 -65 -48 0 7 7 39 16 72 8
33 13 62 11 65 -4 4 -282 -154 -790 -447 -271 -157 -393 -276 -504 -490 l-28
-54 -5 98 -5 99 -76 -84 c-309 -343 -450 -635 -494 -1021 -3 -32 -10 -58 -14
-58 -5 0 -16 20 -25 45 -10 25 -21 45 -25 45 -20 0 -118 -318 -151 -491 -15
-75 -68 -475 -86 -644 -9 -77 -19 -241 -23 -365 l-7 -225 -38 -62 -37 -61 51
-101 c28 -56 55 -101 59 -101 9 0 121 187 121 202 0 4 -16 40 -35 78 l-35 70
15 160 c39 412 80 595 212 949 288 776 715 1266 1402 1610 133 67 312 144 319
137 2 -3 -31 -23 -75 -44 -538 -271 -966 -642 -1240 -1076 -202 -318 -336
-688 -418 -1151 -13 -71 -22 -131 -20 -133 2 -2 13 17 24 43 85 193 364 532
580 705 l80 65 -79 3 c-44 2 -80 6 -80 10 0 12 80 85 142 130 31 23 155 91
275 152 127 64 250 134 295 167 83 63 208 177 208 190 0 5 -21 13 -48 20 -26
6 -73 21 -105 33 -47 18 -56 24 -47 36 32 37 276 179 627 363 250 130 301 160
492 284 139 91 139 88 4 107 -151 20 -151 21 -15 69 271 95 484 233 668 431
91 98 118 137 163 234 26 54 49 90 60 93 25 6 118 203 176 372 42 124 115 389
115 419 0 27 -21 8 -86 -75z"/>
</g>
</svg>
